<svg xmlns="http://www.w3.org/2000/svg" id="flag-icons-gr" viewBox="0 0 512 512">
  <path fill="#005bae" fill-rule="evenodd" stroke-width=".8" d="M0 0h512v57H0z"></path>
  <path fill="#fff" fill-rule="evenodd" stroke-width=".8" d="M0 57h512v57H0z"></path>
  <path fill="#005bae" fill-rule="evenodd" stroke-width=".8" d="M0 114h512v57H0z"></path>
  <path fill="#fff" fill-rule="evenodd" stroke-width=".8" d="M0 171h512v57H0z"></path>
  <path fill="#005bae" fill-rule="evenodd" stroke-width=".8" d="M0 228h512v56.9H0z"></path>
  <path fill="#fff" fill-rule="evenodd" stroke-width=".8" d="M0 284.9h512v57H0z"></path>
  <path fill="#005bae" fill-rule="evenodd" stroke-width=".8" d="M0 341.9h512v57H0z"></path>
  <path fill="#fff" fill-rule="evenodd" stroke-width=".8" d="M0 398.9h512v57H0z"></path>
  <path fill="#005bae" stroke-width="3" d="M0 0h284.9v284.9H0z"></path>
  <g fill="#fff" fill-rule="evenodd" stroke-width="1.3">
    <path d="M148 0h74v370h-74z" transform="scale(.77)"></path>
    <path d="M0 148h370v74H0z" transform="scale(.77)"></path>
  </g>
  <path fill="#005bae" fill-rule="evenodd" stroke-width=".8" d="M0 455h512v57H0z"></path>
</svg>
